<svg xmlns="http://www.w3.org/2000/svg" xmlns:xlink="http://www.w3.org/1999/xlink" width="1000" zoomAndPan="magnify" viewBox="0 0 375 374.999991" height="1000" preserveAspectRatio="xMidYMid meet" version="1.0"><defs><g/><clipPath id="b15ecfa265"><path d="M 29 167 L 89 167 L 89 225.882812 L 29 225.882812 Z M 29 167 " clip-rule="nonzero"/></clipPath><clipPath id="1c40214d66"><path d="M 66 149.382812 L 79 149.382812 L 79 161 L 66 161 Z M 66 149.382812 " clip-rule="nonzero"/></clipPath></defs><g fill="#152039" fill-opacity="1"><g transform="translate(100.520463, 185.805031)"><g><path d="M 10.6875 -6.03125 L 10.6875 0 L 5.921875 0 L 5.921875 -6.09375 L -0.484375 -16.796875 L 4.53125 -16.796875 L 8.515625 -10.125 L 12.5 -16.796875 L 17.109375 -16.796875 Z M 10.6875 -6.03125 "/></g></g></g><g fill="#152039" fill-opacity="1"><g transform="translate(116.672492, 185.805031)"><g><path d="M 9.03125 -4.46875 L 6.4375 -4.46875 L 6.4375 0 L 1.6875 0 L 1.6875 -16.796875 L 9.359375 -16.796875 C 10.878906 -16.796875 12.195312 -16.539062 13.3125 -16.03125 C 14.4375 -15.53125 15.300781 -14.8125 15.90625 -13.875 C 16.519531 -12.945312 16.828125 -11.847656 16.828125 -10.578125 C 16.828125 -9.367188 16.539062 -8.3125 15.96875 -7.40625 C 15.40625 -6.5 14.59375 -5.789062 13.53125 -5.28125 L 17.15625 0 L 12.078125 0 Z M 12.03125 -10.578125 C 12.03125 -11.367188 11.78125 -11.976562 11.28125 -12.40625 C 10.78125 -12.84375 10.046875 -13.0625 9.078125 -13.0625 L 6.4375 -13.0625 L 6.4375 -8.140625 L 9.078125 -8.140625 C 10.046875 -8.140625 10.78125 -8.347656 11.28125 -8.765625 C 11.78125 -9.191406 12.03125 -9.796875 12.03125 -10.578125 Z M 12.03125 -10.578125 "/></g></g></g><g fill="#152039" fill-opacity="1"><g transform="translate(133.952532, 185.805031)"><g><path d="M 8.15625 -6.09375 L 6.390625 -4.203125 L 6.390625 0 L 1.6875 0 L 1.6875 -16.796875 L 6.390625 -16.796875 L 6.390625 -9.8125 L 12.890625 -16.796875 L 18.125 -16.796875 L 11.25 -9.359375 L 18.484375 0 L 12.953125 0 Z M 8.15625 -6.09375 "/></g></g></g><g fill="#152039" fill-opacity="1"><g transform="translate(151.520573, 185.805031)"><g/></g></g><g fill="#152039" fill-opacity="1"><g transform="translate(158.024582, 185.805031)"><g><path d="M 10.0625 0.34375 C 8.300781 0.34375 6.71875 -0.0234375 5.3125 -0.765625 C 3.914062 -1.515625 2.816406 -2.550781 2.015625 -3.875 C 1.210938 -5.207031 0.8125 -6.71875 0.8125 -8.40625 C 0.8125 -10.082031 1.210938 -11.582031 2.015625 -12.90625 C 2.816406 -14.238281 3.914062 -15.273438 5.3125 -16.015625 C 6.71875 -16.765625 8.300781 -17.140625 10.0625 -17.140625 C 11.59375 -17.140625 12.972656 -16.863281 14.203125 -16.3125 C 15.441406 -15.769531 16.46875 -14.988281 17.28125 -13.96875 L 14.25 -11.234375 C 13.164062 -12.546875 11.847656 -13.203125 10.296875 -13.203125 C 9.378906 -13.203125 8.566406 -13 7.859375 -12.59375 C 7.148438 -12.195312 6.597656 -11.632812 6.203125 -10.90625 C 5.804688 -10.175781 5.609375 -9.34375 5.609375 -8.40625 C 5.609375 -7.457031 5.804688 -6.617188 6.203125 -5.890625 C 6.597656 -5.160156 7.148438 -4.59375 7.859375 -4.1875 C 8.566406 -3.789062 9.378906 -3.59375 10.296875 -3.59375 C 11.847656 -3.59375 13.164062 -4.25 14.25 -5.5625 L 17.28125 -2.828125 C 16.46875 -1.804688 15.441406 -1.019531 14.203125 -0.46875 C 12.972656 0.0703125 11.59375 0.34375 10.0625 0.34375 Z M 10.0625 0.34375 "/></g></g></g><g fill="#152039" fill-opacity="1"><g transform="translate(175.256614, 185.805031)"><g><path d="M 10.15625 0.34375 C 8.375 0.34375 6.773438 -0.03125 5.359375 -0.78125 C 3.941406 -1.539062 2.828125 -2.582031 2.015625 -3.90625 C 1.210938 -5.238281 0.8125 -6.738281 0.8125 -8.40625 C 0.8125 -10.0625 1.210938 -11.550781 2.015625 -12.875 C 2.828125 -14.207031 3.941406 -15.25 5.359375 -16 C 6.773438 -16.757812 8.375 -17.140625 10.15625 -17.140625 C 11.925781 -17.140625 13.519531 -16.757812 14.9375 -16 C 16.351562 -15.25 17.460938 -14.207031 18.265625 -12.875 C 19.078125 -11.550781 19.484375 -10.0625 19.484375 -8.40625 C 19.484375 -6.738281 19.078125 -5.238281 18.265625 -3.90625 C 17.460938 -2.582031 16.351562 -1.539062 14.9375 -0.78125 C 13.519531 -0.03125 11.925781 0.34375 10.15625 0.34375 Z M 10.15625 -3.59375 C 11 -3.59375 11.765625 -3.789062 12.453125 -4.1875 C 13.140625 -4.59375 13.679688 -5.160156 14.078125 -5.890625 C 14.484375 -6.617188 14.6875 -7.457031 14.6875 -8.40625 C 14.6875 -9.34375 14.484375 -10.175781 14.078125 -10.90625 C 13.679688 -11.632812 13.140625 -12.195312 12.453125 -12.59375 C 11.765625 -13 11 -13.203125 10.15625 -13.203125 C 9.300781 -13.203125 8.53125 -13 7.84375 -12.59375 C 7.15625 -12.195312 6.609375 -11.632812 6.203125 -10.90625 C 5.804688 -10.175781 5.609375 -9.34375 5.609375 -8.40625 C 5.609375 -7.457031 5.804688 -6.617188 6.203125 -5.890625 C 6.609375 -5.160156 7.15625 -4.59375 7.84375 -4.1875 C 8.53125 -3.789062 9.300781 -3.59375 10.15625 -3.59375 Z M 10.15625 -3.59375 "/></g></g></g><g fill="#152039" fill-opacity="1"><g transform="translate(195.080652, 185.805031)"><g><path d="M 17.65625 -16.796875 L 17.65625 0 L 13.75 0 L 6.34375 -8.953125 L 6.34375 0 L 1.6875 0 L 1.6875 -16.796875 L 5.59375 -16.796875 L 13.015625 -7.84375 L 13.015625 -16.796875 Z M 17.65625 -16.796875 "/></g></g></g><g fill="#152039" fill-opacity="1"><g transform="translate(213.944692, 185.805031)"><g><path d="M 6.4375 -13.125 L 6.4375 -9.4375 L 13.84375 -9.4375 L 13.84375 -5.765625 L 6.4375 -5.765625 L 6.4375 0 L 1.6875 0 L 1.6875 -16.796875 L 14.859375 -16.796875 L 14.859375 -13.125 Z M 6.4375 -13.125 "/></g></g></g><g fill="#152039" fill-opacity="1"><g transform="translate(228.872718, 185.805031)"><g><path d="M 15.171875 -3.671875 L 15.171875 0 L 1.6875 0 L 1.6875 -16.796875 L 14.859375 -16.796875 L 14.859375 -13.125 L 6.390625 -13.125 L 6.390625 -10.296875 L 13.84375 -10.296875 L 13.84375 -6.75 L 6.390625 -6.75 L 6.390625 -3.671875 Z M 15.171875 -3.671875 "/></g></g></g><g fill="#152039" fill-opacity="1"><g transform="translate(244.52075, 185.805031)"><g><path d="M 9.03125 -4.46875 L 6.4375 -4.46875 L 6.4375 0 L 1.6875 0 L 1.6875 -16.796875 L 9.359375 -16.796875 C 10.878906 -16.796875 12.195312 -16.539062 13.3125 -16.03125 C 14.4375 -15.53125 15.300781 -14.8125 15.90625 -13.875 C 16.519531 -12.945312 16.828125 -11.847656 16.828125 -10.578125 C 16.828125 -9.367188 16.539062 -8.3125 15.96875 -7.40625 C 15.40625 -6.5 14.59375 -5.789062 13.53125 -5.28125 L 17.15625 0 L 12.078125 0 Z M 12.03125 -10.578125 C 12.03125 -11.367188 11.78125 -11.976562 11.28125 -12.40625 C 10.78125 -12.84375 10.046875 -13.0625 9.078125 -13.0625 L 6.4375 -13.0625 L 6.4375 -8.140625 L 9.078125 -8.140625 C 10.046875 -8.140625 10.78125 -8.347656 11.28125 -8.765625 C 11.78125 -9.191406 12.03125 -9.796875 12.03125 -10.578125 Z M 12.03125 -10.578125 "/></g></g></g><g fill="#152039" fill-opacity="1"><g transform="translate(261.80079, 185.805031)"><g><path d="M 15.171875 -3.671875 L 15.171875 0 L 1.6875 0 L 1.6875 -16.796875 L 14.859375 -16.796875 L 14.859375 -13.125 L 6.390625 -13.125 L 6.390625 -10.296875 L 13.84375 -10.296875 L 13.84375 -6.75 L 6.390625 -6.75 L 6.390625 -3.671875 Z M 15.171875 -3.671875 "/></g></g></g><g fill="#152039" fill-opacity="1"><g transform="translate(277.448822, 185.805031)"><g><path d="M 17.65625 -16.796875 L 17.65625 0 L 13.75 0 L 6.34375 -8.953125 L 6.34375 0 L 1.6875 0 L 1.6875 -16.796875 L 5.59375 -16.796875 L 13.015625 -7.84375 L 13.015625 -16.796875 Z M 17.65625 -16.796875 "/></g></g></g><g fill="#152039" fill-opacity="1"><g transform="translate(296.312861, 185.805031)"><g><path d="M 10.0625 0.34375 C 8.300781 0.34375 6.71875 -0.0234375 5.3125 -0.765625 C 3.914062 -1.515625 2.816406 -2.550781 2.015625 -3.875 C 1.210938 -5.207031 0.8125 -6.71875 0.8125 -8.40625 C 0.8125 -10.082031 1.210938 -11.582031 2.015625 -12.90625 C 2.816406 -14.238281 3.914062 -15.273438 5.3125 -16.015625 C 6.71875 -16.765625 8.300781 -17.140625 10.0625 -17.140625 C 11.59375 -17.140625 12.972656 -16.863281 14.203125 -16.3125 C 15.441406 -15.769531 16.46875 -14.988281 17.28125 -13.96875 L 14.25 -11.234375 C 13.164062 -12.546875 11.847656 -13.203125 10.296875 -13.203125 C 9.378906 -13.203125 8.566406 -13 7.859375 -12.59375 C 7.148438 -12.195312 6.597656 -11.632812 6.203125 -10.90625 C 5.804688 -10.175781 5.609375 -9.34375 5.609375 -8.40625 C 5.609375 -7.457031 5.804688 -6.617188 6.203125 -5.890625 C 6.597656 -5.160156 7.148438 -4.59375 7.859375 -4.1875 C 8.566406 -3.789062 9.378906 -3.59375 10.296875 -3.59375 C 11.847656 -3.59375 13.164062 -4.25 14.25 -5.5625 L 17.28125 -2.828125 C 16.46875 -1.804688 15.441406 -1.019531 14.203125 -0.46875 C 12.972656 0.0703125 11.59375 0.34375 10.0625 0.34375 Z M 10.0625 0.34375 "/></g></g></g><g fill="#152039" fill-opacity="1"><g transform="translate(313.544893, 185.805031)"><g><path d="M 1.6875 -16.796875 L 6.4375 -16.796875 L 6.4375 0 L 1.6875 0 Z M 1.6875 -16.796875 "/></g></g></g><g fill="#152039" fill-opacity="1"><g transform="translate(321.200898, 185.805031)"><g><path d="M 17.65625 -16.796875 L 17.65625 0 L 13.75 0 L 6.34375 -8.953125 L 6.34375 0 L 1.6875 0 L 1.6875 -16.796875 L 5.59375 -16.796875 L 13.015625 -7.84375 L 13.015625 -16.796875 Z M 17.65625 -16.796875 "/></g></g></g><g fill="#152039" fill-opacity="1"><g transform="translate(340.064926, 185.805031)"><g><path d="M 12.9375 -8.765625 L 17.140625 -8.765625 L 17.140625 -1.796875 C 16.179688 -1.109375 15.078125 -0.578125 13.828125 -0.203125 C 12.578125 0.160156 11.328125 0.34375 10.078125 0.34375 C 8.316406 0.34375 6.734375 -0.0234375 5.328125 -0.765625 C 3.921875 -1.515625 2.816406 -2.550781 2.015625 -3.875 C 1.210938 -5.207031 0.8125 -6.71875 0.8125 -8.40625 C 0.8125 -10.082031 1.210938 -11.582031 2.015625 -12.90625 C 2.816406 -14.238281 3.925781 -15.273438 5.34375 -16.015625 C 6.769531 -16.765625 8.378906 -17.140625 10.171875 -17.140625 C 11.742188 -17.140625 13.148438 -16.875 14.390625 -16.34375 C 15.640625 -15.8125 16.679688 -15.050781 17.515625 -14.0625 L 14.5 -11.328125 C 13.363281 -12.578125 12.003906 -13.203125 10.421875 -13.203125 C 8.972656 -13.203125 7.804688 -12.765625 6.921875 -11.890625 C 6.046875 -11.015625 5.609375 -9.851562 5.609375 -8.40625 C 5.609375 -7.476562 5.804688 -6.648438 6.203125 -5.921875 C 6.609375 -5.191406 7.171875 -4.617188 7.890625 -4.203125 C 8.609375 -3.796875 9.4375 -3.59375 10.375 -3.59375 C 11.28125 -3.59375 12.132812 -3.78125 12.9375 -4.15625 Z M 12.9375 -8.765625 "/></g></g></g><g fill="#152039" fill-opacity="1"><g transform="translate(100.520463, 209.639802)"><g><path d="M 6.46875 -6 L 3.875 0 L 2.515625 0 L -0.078125 -6 L 1.421875 -6 L 3.25 -1.71875 L 5.09375 -6 Z M 6.46875 -6 "/></g></g></g><g fill="#152039" fill-opacity="1"><g transform="translate(106.869224, 209.639802)"><g><path d="M 0.703125 -6 L 2.09375 -6 L 2.09375 0 L 0.703125 0 Z M 0.703125 -6 "/></g></g></g><g fill="#152039" fill-opacity="1"><g transform="translate(109.63664, 209.639802)"><g><path d="M 0.703125 -6 L 3.4375 -6 C 4.082031 -6 4.65625 -5.875 5.15625 -5.625 C 5.65625 -5.375 6.039062 -5.019531 6.3125 -4.5625 C 6.59375 -4.113281 6.734375 -3.59375 6.734375 -3 C 6.734375 -2.394531 6.59375 -1.867188 6.3125 -1.421875 C 6.039062 -0.972656 5.65625 -0.625 5.15625 -0.375 C 4.65625 -0.125 4.082031 0 3.4375 0 L 0.703125 0 Z M 3.359375 -1.140625 C 3.960938 -1.140625 4.441406 -1.304688 4.796875 -1.640625 C 5.148438 -1.972656 5.328125 -2.425781 5.328125 -3 C 5.328125 -3.570312 5.148438 -4.023438 4.796875 -4.359375 C 4.441406 -4.691406 3.960938 -4.859375 3.359375 -4.859375 L 2.09375 -4.859375 L 2.09375 -1.140625 Z M 3.359375 -1.140625 "/></g></g></g><g fill="#152039" fill-opacity="1"><g transform="translate(116.670829, 209.639802)"><g><path d="M 5.359375 -1.109375 L 5.359375 0 L 0.703125 0 L 0.703125 -6 L 5.234375 -6 L 5.234375 -4.875 L 2.09375 -4.875 L 2.09375 -3.578125 L 4.875 -3.578125 L 4.875 -2.5 L 2.09375 -2.5 L 2.09375 -1.109375 Z M 5.359375 -1.109375 "/></g></g></g><g fill="#152039" fill-opacity="1"><g transform="translate(122.377012, 209.639802)"><g><path d="M 3.609375 0.109375 C 2.992188 0.109375 2.4375 -0.0234375 1.9375 -0.296875 C 1.4375 -0.566406 1.039062 -0.9375 0.75 -1.40625 C 0.46875 -1.875 0.328125 -2.40625 0.328125 -3 C 0.328125 -3.582031 0.46875 -4.109375 0.75 -4.578125 C 1.039062 -5.054688 1.4375 -5.425781 1.9375 -5.6875 C 2.4375 -5.957031 2.992188 -6.09375 3.609375 -6.09375 C 4.234375 -6.09375 4.789062 -5.957031 5.28125 -5.6875 C 5.78125 -5.425781 6.171875 -5.054688 6.453125 -4.578125 C 6.742188 -4.109375 6.890625 -3.582031 6.890625 -3 C 6.890625 -2.40625 6.742188 -1.875 6.453125 -1.40625 C 6.171875 -0.9375 5.78125 -0.566406 5.28125 -0.296875 C 4.789062 -0.0234375 4.234375 0.109375 3.609375 0.109375 Z M 3.609375 -1.078125 C 3.960938 -1.078125 4.28125 -1.15625 4.5625 -1.3125 C 4.851562 -1.476562 5.078125 -1.707031 5.234375 -2 C 5.398438 -2.289062 5.484375 -2.625 5.484375 -3 C 5.484375 -3.363281 5.398438 -3.691406 5.234375 -3.984375 C 5.078125 -4.273438 4.851562 -4.503906 4.5625 -4.671875 C 4.28125 -4.835938 3.960938 -4.921875 3.609375 -4.921875 C 3.253906 -4.921875 2.929688 -4.835938 2.640625 -4.671875 C 2.359375 -4.503906 2.132812 -4.273438 1.96875 -3.984375 C 1.8125 -3.691406 1.734375 -3.363281 1.734375 -3 C 1.734375 -2.625 1.8125 -2.289062 1.96875 -2 C 2.132812 -1.707031 2.359375 -1.476562 2.640625 -1.3125 C 2.929688 -1.15625 3.253906 -1.078125 3.609375 -1.078125 Z M 3.609375 -1.078125 "/></g></g></g><g fill="#152039" fill-opacity="1"><g transform="translate(129.565423, 209.639802)"><g/></g></g><g fill="#152039" fill-opacity="1"><g transform="translate(131.947282, 209.639802)"><g><path d="M 3.578125 0.109375 C 2.960938 0.109375 2.410156 -0.0195312 1.921875 -0.28125 C 1.429688 -0.550781 1.039062 -0.921875 0.75 -1.390625 C 0.46875 -1.867188 0.328125 -2.40625 0.328125 -3 C 0.328125 -3.59375 0.46875 -4.125 0.75 -4.59375 C 1.039062 -5.0625 1.429688 -5.425781 1.921875 -5.6875 C 2.410156 -5.957031 2.96875 -6.09375 3.59375 -6.09375 C 4.101562 -6.09375 4.566406 -6 4.984375 -5.8125 C 5.410156 -5.632812 5.765625 -5.375 6.046875 -5.03125 L 5.15625 -4.21875 C 4.757812 -4.6875 4.257812 -4.921875 3.65625 -4.921875 C 3.28125 -4.921875 2.945312 -4.835938 2.65625 -4.671875 C 2.363281 -4.503906 2.132812 -4.273438 1.96875 -3.984375 C 1.8125 -3.691406 1.734375 -3.363281 1.734375 -3 C 1.734375 -2.625 1.8125 -2.289062 1.96875 -2 C 2.132812 -1.707031 2.363281 -1.476562 2.65625 -1.3125 C 2.945312 -1.15625 3.28125 -1.078125 3.65625 -1.078125 C 4.257812 -1.078125 4.757812 -1.316406 5.15625 -1.796875 L 6.046875 -0.96875 C 5.765625 -0.613281 5.410156 -0.34375 4.984375 -0.15625 C 4.566406 0.0195312 4.097656 0.109375 3.578125 0.109375 Z M 3.578125 0.109375 "/></g></g></g><g fill="#152039" fill-opacity="1"><g transform="translate(138.184668, 209.639802)"><g><path d="M 3.609375 0.109375 C 2.992188 0.109375 2.4375 -0.0234375 1.9375 -0.296875 C 1.4375 -0.566406 1.039062 -0.9375 0.75 -1.40625 C 0.46875 -1.875 0.328125 -2.40625 0.328125 -3 C 0.328125 -3.582031 0.46875 -4.109375 0.75 -4.578125 C 1.039062 -5.054688 1.4375 -5.425781 1.9375 -5.6875 C 2.4375 -5.957031 2.992188 -6.09375 3.609375 -6.09375 C 4.234375 -6.09375 4.789062 -5.957031 5.28125 -5.6875 C 5.78125 -5.425781 6.171875 -5.054688 6.453125 -4.578125 C 6.742188 -4.109375 6.890625 -3.582031 6.890625 -3 C 6.890625 -2.40625 6.742188 -1.875 6.453125 -1.40625 C 6.171875 -0.9375 5.78125 -0.566406 5.28125 -0.296875 C 4.789062 -0.0234375 4.234375 0.109375 3.609375 0.109375 Z M 3.609375 -1.078125 C 3.960938 -1.078125 4.28125 -1.15625 4.5625 -1.3125 C 4.851562 -1.476562 5.078125 -1.707031 5.234375 -2 C 5.398438 -2.289062 5.484375 -2.625 5.484375 -3 C 5.484375 -3.363281 5.398438 -3.691406 5.234375 -3.984375 C 5.078125 -4.273438 4.851562 -4.503906 4.5625 -4.671875 C 4.28125 -4.835938 3.960938 -4.921875 3.609375 -4.921875 C 3.253906 -4.921875 2.929688 -4.835938 2.640625 -4.671875 C 2.359375 -4.503906 2.132812 -4.273438 1.96875 -3.984375 C 1.8125 -3.691406 1.734375 -3.363281 1.734375 -3 C 1.734375 -2.625 1.8125 -2.289062 1.96875 -2 C 2.132812 -1.707031 2.359375 -1.476562 2.640625 -1.3125 C 2.929688 -1.15625 3.253906 -1.078125 3.609375 -1.078125 Z M 3.609375 -1.078125 "/></g></g></g><g fill="#152039" fill-opacity="1"><g transform="translate(145.373078, 209.639802)"><g><path d="M 6.203125 -6 L 6.203125 0 L 5.0625 0 L 2.078125 -3.640625 L 2.078125 0 L 0.703125 0 L 0.703125 -6 L 1.859375 -6 L 4.84375 -2.359375 L 4.84375 -6 Z M 6.203125 -6 "/></g></g></g><g fill="#152039" fill-opacity="1"><g transform="translate(152.253056, 209.639802)"><g><path d="M 2.09375 -4.875 L 2.09375 -3.296875 L 4.875 -3.296875 L 4.875 -2.1875 L 2.09375 -2.1875 L 2.09375 0 L 0.703125 0 L 0.703125 -6 L 5.234375 -6 L 5.234375 -4.875 Z M 2.09375 -4.875 "/></g></g></g><g fill="#152039" fill-opacity="1"><g transform="translate(157.68507, 209.639802)"><g><path d="M 5.359375 -1.109375 L 5.359375 0 L 0.703125 0 L 0.703125 -6 L 5.234375 -6 L 5.234375 -4.875 L 2.09375 -4.875 L 2.09375 -3.578125 L 4.875 -3.578125 L 4.875 -2.5 L 2.09375 -2.5 L 2.09375 -1.109375 Z M 5.359375 -1.109375 "/></g></g></g><g fill="#152039" fill-opacity="1"><g transform="translate(163.391255, 209.639802)"><g><path d="M 4.53125 0 L 3.375 -1.671875 L 2.09375 -1.671875 L 2.09375 0 L 0.703125 0 L 0.703125 -6 L 3.3125 -6 C 3.832031 -6 4.289062 -5.910156 4.6875 -5.734375 C 5.082031 -5.554688 5.382812 -5.300781 5.59375 -4.96875 C 5.800781 -4.644531 5.90625 -4.257812 5.90625 -3.8125 C 5.90625 -3.375 5.796875 -2.992188 5.578125 -2.671875 C 5.367188 -2.347656 5.066406 -2.097656 4.671875 -1.921875 L 6.015625 0 Z M 4.5 -3.8125 C 4.5 -4.15625 4.390625 -4.414062 4.171875 -4.59375 C 3.960938 -4.769531 3.648438 -4.859375 3.234375 -4.859375 L 2.09375 -4.859375 L 2.09375 -2.78125 L 3.234375 -2.78125 C 3.648438 -2.78125 3.960938 -2.867188 4.171875 -3.046875 C 4.390625 -3.234375 4.5 -3.488281 4.5 -3.8125 Z M 4.5 -3.8125 "/></g></g></g><g fill="#152039" fill-opacity="1"><g transform="translate(169.645781, 209.639802)"><g><path d="M 5.359375 -1.109375 L 5.359375 0 L 0.703125 0 L 0.703125 -6 L 5.234375 -6 L 5.234375 -4.875 L 2.09375 -4.875 L 2.09375 -3.578125 L 4.875 -3.578125 L 4.875 -2.5 L 2.09375 -2.5 L 2.09375 -1.109375 Z M 5.359375 -1.109375 "/></g></g></g><g fill="#152039" fill-opacity="1"><g transform="translate(175.351965, 209.639802)"><g><path d="M 6.203125 -6 L 6.203125 0 L 5.0625 0 L 2.078125 -3.640625 L 2.078125 0 L 0.703125 0 L 0.703125 -6 L 1.859375 -6 L 4.84375 -2.359375 L 4.84375 -6 Z M 6.203125 -6 "/></g></g></g><g fill="#152039" fill-opacity="1"><g transform="translate(182.231944, 209.639802)"><g><path d="M 3.578125 0.109375 C 2.960938 0.109375 2.410156 -0.0195312 1.921875 -0.28125 C 1.429688 -0.550781 1.039062 -0.921875 0.75 -1.390625 C 0.46875 -1.867188 0.328125 -2.40625 0.328125 -3 C 0.328125 -3.59375 0.46875 -4.125 0.75 -4.59375 C 1.039062 -5.0625 1.429688 -5.425781 1.921875 -5.6875 C 2.410156 -5.957031 2.96875 -6.09375 3.59375 -6.09375 C 4.101562 -6.09375 4.566406 -6 4.984375 -5.8125 C 5.410156 -5.632812 5.765625 -5.375 6.046875 -5.03125 L 5.15625 -4.21875 C 4.757812 -4.6875 4.257812 -4.921875 3.65625 -4.921875 C 3.28125 -4.921875 2.945312 -4.835938 2.65625 -4.671875 C 2.363281 -4.503906 2.132812 -4.273438 1.96875 -3.984375 C 1.8125 -3.691406 1.734375 -3.363281 1.734375 -3 C 1.734375 -2.625 1.8125 -2.289062 1.96875 -2 C 2.132812 -1.707031 2.363281 -1.476562 2.65625 -1.3125 C 2.945312 -1.15625 3.28125 -1.078125 3.65625 -1.078125 C 4.257812 -1.078125 4.757812 -1.316406 5.15625 -1.796875 L 6.046875 -0.96875 C 5.765625 -0.613281 5.410156 -0.34375 4.984375 -0.15625 C 4.566406 0.0195312 4.097656 0.109375 3.578125 0.109375 Z M 3.578125 0.109375 "/></g></g></g><g fill="#152039" fill-opacity="1"><g transform="translate(188.469333, 209.639802)"><g><path d="M 0.703125 -6 L 2.09375 -6 L 2.09375 0 L 0.703125 0 Z M 0.703125 -6 "/></g></g></g><g fill="#152039" fill-opacity="1"><g transform="translate(191.236751, 209.639802)"><g><path d="M 6.203125 -6 L 6.203125 0 L 5.0625 0 L 2.078125 -3.640625 L 2.078125 0 L 0.703125 0 L 0.703125 -6 L 1.859375 -6 L 4.84375 -2.359375 L 4.84375 -6 Z M 6.203125 -6 "/></g></g></g><g fill="#152039" fill-opacity="1"><g transform="translate(198.116724, 209.639802)"><g><path d="M 4.765625 -3.09375 L 6.03125 -3.09375 L 6.03125 -0.65625 C 5.707031 -0.414062 5.328125 -0.226562 4.890625 -0.09375 C 4.460938 0.0390625 4.035156 0.109375 3.609375 0.109375 C 2.984375 0.109375 2.421875 -0.0195312 1.921875 -0.28125 C 1.429688 -0.550781 1.039062 -0.921875 0.75 -1.390625 C 0.46875 -1.867188 0.328125 -2.40625 0.328125 -3 C 0.328125 -3.59375 0.46875 -4.125 0.75 -4.59375 C 1.039062 -5.0625 1.4375 -5.425781 1.9375 -5.6875 C 2.4375 -5.957031 3 -6.09375 3.625 -6.09375 C 4.15625 -6.09375 4.632812 -6.003906 5.0625 -5.828125 C 5.488281 -5.648438 5.847656 -5.394531 6.140625 -5.0625 L 5.25 -4.234375 C 4.820312 -4.691406 4.304688 -4.921875 3.703125 -4.921875 C 3.316406 -4.921875 2.972656 -4.835938 2.671875 -4.671875 C 2.378906 -4.515625 2.148438 -4.289062 1.984375 -4 C 1.816406 -3.707031 1.734375 -3.375 1.734375 -3 C 1.734375 -2.625 1.816406 -2.289062 1.984375 -2 C 2.148438 -1.707031 2.378906 -1.476562 2.671875 -1.3125 C 2.960938 -1.15625 3.300781 -1.078125 3.6875 -1.078125 C 4.082031 -1.078125 4.441406 -1.160156 4.765625 -1.328125 Z M 4.765625 -3.09375 "/></g></g></g><g fill="#152039" fill-opacity="1"><g transform="translate(204.679684, 209.639802)"><g/></g></g><g fill="#152039" fill-opacity="1"><g transform="translate(207.061546, 209.639802)"><g><path d="M 0.703125 -6 L 3.4375 -6 C 4.082031 -6 4.65625 -5.875 5.15625 -5.625 C 5.65625 -5.375 6.039062 -5.019531 6.3125 -4.5625 C 6.59375 -4.113281 6.734375 -3.59375 6.734375 -3 C 6.734375 -2.394531 6.59375 -1.867188 6.3125 -1.421875 C 6.039062 -0.972656 5.65625 -0.625 5.15625 -0.375 C 4.65625 -0.125 4.082031 0 3.4375 0 L 0.703125 0 Z M 3.359375 -1.140625 C 3.960938 -1.140625 4.441406 -1.304688 4.796875 -1.640625 C 5.148438 -1.972656 5.328125 -2.425781 5.328125 -3 C 5.328125 -3.570312 5.148438 -4.023438 4.796875 -4.359375 C 4.441406 -4.691406 3.960938 -4.859375 3.359375 -4.859375 L 2.09375 -4.859375 L 2.09375 -1.140625 Z M 3.359375 -1.140625 "/></g></g></g><g fill="#152039" fill-opacity="1"><g transform="translate(214.095736, 209.639802)"><g><path d="M 3.609375 0.109375 C 2.992188 0.109375 2.4375 -0.0234375 1.9375 -0.296875 C 1.4375 -0.566406 1.039062 -0.9375 0.75 -1.40625 C 0.46875 -1.875 0.328125 -2.40625 0.328125 -3 C 0.328125 -3.582031 0.46875 -4.109375 0.75 -4.578125 C 1.039062 -5.054688 1.4375 -5.425781 1.9375 -5.6875 C 2.4375 -5.957031 2.992188 -6.09375 3.609375 -6.09375 C 4.234375 -6.09375 4.789062 -5.957031 5.28125 -5.6875 C 5.78125 -5.425781 6.171875 -5.054688 6.453125 -4.578125 C 6.742188 -4.109375 6.890625 -3.582031 6.890625 -3 C 6.890625 -2.40625 6.742188 -1.875 6.453125 -1.40625 C 6.171875 -0.9375 5.78125 -0.566406 5.28125 -0.296875 C 4.789062 -0.0234375 4.234375 0.109375 3.609375 0.109375 Z M 3.609375 -1.078125 C 3.960938 -1.078125 4.28125 -1.15625 4.5625 -1.3125 C 4.851562 -1.476562 5.078125 -1.707031 5.234375 -2 C 5.398438 -2.289062 5.484375 -2.625 5.484375 -3 C 5.484375 -3.363281 5.398438 -3.691406 5.234375 -3.984375 C 5.078125 -4.273438 4.851562 -4.503906 4.5625 -4.671875 C 4.28125 -4.835938 3.960938 -4.921875 3.609375 -4.921875 C 3.253906 -4.921875 2.929688 -4.835938 2.640625 -4.671875 C 2.359375 -4.503906 2.132812 -4.273438 1.96875 -3.984375 C 1.8125 -3.691406 1.734375 -3.363281 1.734375 -3 C 1.734375 -2.625 1.8125 -2.289062 1.96875 -2 C 2.132812 -1.707031 2.359375 -1.476562 2.640625 -1.3125 C 2.929688 -1.15625 3.253906 -1.078125 3.609375 -1.078125 Z M 3.609375 -1.078125 "/></g></g></g><g fill="#152039" fill-opacity="1"><g transform="translate(221.284148, 209.639802)"><g><path d="M 6.203125 -6 L 6.203125 0 L 5.0625 0 L 2.078125 -3.640625 L 2.078125 0 L 0.703125 0 L 0.703125 -6 L 1.859375 -6 L 4.84375 -2.359375 L 4.84375 -6 Z M 6.203125 -6 "/></g></g></g><g fill="#152039" fill-opacity="1"><g transform="translate(228.164127, 209.639802)"><g><path d="M 5.359375 -1.109375 L 5.359375 0 L 0.703125 0 L 0.703125 -6 L 5.234375 -6 L 5.234375 -4.875 L 2.09375 -4.875 L 2.09375 -3.578125 L 4.875 -3.578125 L 4.875 -2.5 L 2.09375 -2.5 L 2.09375 -1.109375 Z M 5.359375 -1.109375 "/></g></g></g><g fill="#152039" fill-opacity="1"><g transform="translate(233.870311, 209.639802)"><g/></g></g><g fill="#152039" fill-opacity="1"><g transform="translate(236.252173, 209.639802)"><g><path d="M 5.109375 -3.109375 C 5.453125 -3.003906 5.71875 -2.820312 5.90625 -2.5625 C 6.101562 -2.3125 6.203125 -2.003906 6.203125 -1.640625 C 6.203125 -1.109375 6 -0.703125 5.59375 -0.421875 C 5.1875 -0.140625 4.59375 0 3.8125 0 L 0.703125 0 L 0.703125 -6 L 3.640625 -6 C 4.367188 -6 4.925781 -5.859375 5.3125 -5.578125 C 5.707031 -5.296875 5.90625 -4.914062 5.90625 -4.4375 C 5.90625 -4.144531 5.832031 -3.882812 5.6875 -3.65625 C 5.550781 -3.425781 5.359375 -3.242188 5.109375 -3.109375 Z M 2.09375 -4.953125 L 2.09375 -3.53125 L 3.46875 -3.53125 C 3.8125 -3.53125 4.070312 -3.585938 4.25 -3.703125 C 4.425781 -3.828125 4.515625 -4.007812 4.515625 -4.25 C 4.515625 -4.476562 4.425781 -4.648438 4.25 -4.765625 C 4.070312 -4.890625 3.8125 -4.953125 3.46875 -4.953125 Z M 3.703125 -1.046875 C 4.066406 -1.046875 4.34375 -1.101562 4.53125 -1.21875 C 4.71875 -1.34375 4.8125 -1.53125 4.8125 -1.78125 C 4.8125 -2.28125 4.441406 -2.53125 3.703125 -2.53125 L 2.09375 -2.53125 L 2.09375 -1.046875 Z M 3.703125 -1.046875 "/></g></g></g><g fill="#152039" fill-opacity="1"><g transform="translate(242.763733, 209.639802)"><g><path d="M 5.359375 -1.109375 L 5.359375 0 L 0.703125 0 L 0.703125 -6 L 5.234375 -6 L 5.234375 -4.875 L 2.09375 -4.875 L 2.09375 -3.578125 L 4.875 -3.578125 L 4.875 -2.5 L 2.09375 -2.5 L 2.09375 -1.109375 Z M 5.359375 -1.109375 "/></g></g></g><g fill="#152039" fill-opacity="1"><g transform="translate(248.469917, 209.639802)"><g><path d="M 1.953125 -4.859375 L 0.03125 -4.859375 L 0.03125 -6 L 5.25 -6 L 5.25 -4.859375 L 3.34375 -4.859375 L 3.34375 0 L 1.953125 0 Z M 1.953125 -4.859375 "/></g></g></g><g fill="#152039" fill-opacity="1"><g transform="translate(253.721998, 209.639802)"><g><path d="M 1.953125 -4.859375 L 0.03125 -4.859375 L 0.03125 -6 L 5.25 -6 L 5.25 -4.859375 L 3.34375 -4.859375 L 3.34375 0 L 1.953125 0 Z M 1.953125 -4.859375 "/></g></g></g><g fill="#152039" fill-opacity="1"><g transform="translate(258.974078, 209.639802)"><g><path d="M 5.359375 -1.109375 L 5.359375 0 L 0.703125 0 L 0.703125 -6 L 5.234375 -6 L 5.234375 -4.875 L 2.09375 -4.875 L 2.09375 -3.578125 L 4.875 -3.578125 L 4.875 -2.5 L 2.09375 -2.5 L 2.09375 -1.109375 Z M 5.359375 -1.109375 "/></g></g></g><g fill="#152039" fill-opacity="1"><g transform="translate(264.680263, 209.639802)"><g><path d="M 4.53125 0 L 3.375 -1.671875 L 2.09375 -1.671875 L 2.09375 0 L 0.703125 0 L 0.703125 -6 L 3.3125 -6 C 3.832031 -6 4.289062 -5.910156 4.6875 -5.734375 C 5.082031 -5.554688 5.382812 -5.300781 5.59375 -4.96875 C 5.800781 -4.644531 5.90625 -4.257812 5.90625 -3.8125 C 5.90625 -3.375 5.796875 -2.992188 5.578125 -2.671875 C 5.367188 -2.347656 5.066406 -2.097656 4.671875 -1.921875 L 6.015625 0 Z M 4.5 -3.8125 C 4.5 -4.15625 4.390625 -4.414062 4.171875 -4.59375 C 3.960938 -4.769531 3.648438 -4.859375 3.234375 -4.859375 L 2.09375 -4.859375 L 2.09375 -2.78125 L 3.234375 -2.78125 C 3.648438 -2.78125 3.960938 -2.867188 4.171875 -3.046875 C 4.390625 -3.234375 4.5 -3.488281 4.5 -3.8125 Z M 4.5 -3.8125 "/></g></g></g><g fill="#152039" fill-opacity="1"><g transform="translate(270.934789, 209.639802)"><g><path d="M 1.125 0.0625 C 0.882812 0.0625 0.6875 -0.015625 0.53125 -0.171875 C 0.375 -0.328125 0.296875 -0.523438 0.296875 -0.765625 C 0.296875 -1.015625 0.375 -1.210938 0.53125 -1.359375 C 0.6875 -1.515625 0.882812 -1.59375 1.125 -1.59375 C 1.351562 -1.59375 1.546875 -1.515625 1.703125 -1.359375 C 1.867188 -1.210938 1.953125 -1.015625 1.953125 -0.765625 C 1.953125 -0.523438 1.867188 -0.328125 1.703125 -0.171875 C 1.546875 -0.015625 1.351562 0.0625 1.125 0.0625 Z M 1.125 0.0625 "/></g></g></g><g clip-path="url(#b15ecfa265)"><path fill="#1082cf" d="M 61.878906 225.882812 C 60.84375 225.882812 59.804688 225.753906 58.753906 225.488281 C 55.574219 224.691406 52.484375 222.917969 49.425781 220.632812 C 51.910156 220.910156 54.472656 221 57.03125 221 C 58.253906 221 59.476562 220.980469 60.6875 220.949219 C 65.726562 220.703125 70.566406 220.269531 74.675781 218.964844 C 74.632812 219.011719 74.59375 219.054688 74.550781 219.101562 C 70.367188 223.601562 66.1875 225.882812 61.878906 225.882812 M 31.15625 200.699219 C 30.882812 200.144531 30.632812 199.585938 30.40625 199.023438 C 28.007812 193.078125 29.269531 187.253906 34.460938 181.675781 C 35.496094 180.554688 36.695312 179.445312 38.035156 178.367188 C 33.796875 185.933594 31.476562 194.070312 31.15625 200.699219 M 85.703125 199.695312 C 85.148438 192.429688 82.507812 183.277344 77.667969 175.222656 C 75.769531 172.070312 73.65625 169.394531 71.398438 167.28125 C 76.1875 167.695312 80.222656 169.242188 83.042969 171.9375 C 88.234375 176.675781 89.5 185.109375 87.097656 194.917969 C 86.703125 196.539062 86.234375 198.132812 85.703125 199.695312 " fill-opacity="1" fill-rule="nonzero"/></g><path fill="#e91348" d="M 49.425781 220.632812 C 46.242188 220.277344 43.191406 219.617188 40.460938 218.457031 C 34.589844 215.960938 31.390625 210.941406 31.136719 203.304688 C 31.105469 202.464844 31.113281 201.59375 31.15625 200.699219 C 33.765625 205.980469 38.367188 210.789062 42.953125 215.171875 C 45.105469 217.136719 47.257812 219.011719 49.425781 220.632812 M 74.675781 218.964844 C 78.863281 214.386719 83.046875 207.492188 85.703125 199.695312 C 85.742188 200.222656 85.773438 200.742188 85.789062 201.25 C 86.042969 208.890625 83.90625 214.105469 79.109375 217.003906 C 77.761719 217.816406 76.277344 218.457031 74.675781 218.964844 M 38.035156 178.367188 C 38.351562 177.800781 38.679688 177.234375 39.019531 176.675781 C 44.496094 167.632812 51.660156 162.042969 58.644531 161.859375 C 58.867188 161.847656 59.089844 161.84375 59.3125 161.84375 C 63.527344 161.84375 67.664062 163.789062 71.398438 167.28125 C 70.527344 167.207031 69.628906 167.167969 68.710938 167.167969 C 65.605469 167.167969 62.25 167.597656 58.753906 168.453125 C 50.613281 170.441406 43.253906 174.164062 38.035156 178.367188 " fill-opacity="1" fill-rule="nonzero"/><path fill="#1b66b9" d="M 57.03125 221 C 54.472656 221 51.910156 220.910156 49.425781 220.632812 C 47.257812 219.011719 45.105469 217.136719 42.953125 215.171875 C 38.367188 210.789062 33.765625 205.980469 31.15625 200.699219 C 31.476562 194.070312 33.796875 185.933594 38.035156 178.367188 C 43.253906 174.164062 50.613281 170.441406 58.753906 168.453125 C 62.25 167.597656 65.605469 167.167969 68.710938 167.167969 C 69.628906 167.167969 70.527344 167.207031 71.398438 167.28125 C 73.65625 169.394531 75.769531 172.070312 77.667969 175.222656 C 82.507812 183.277344 85.148438 192.429688 85.703125 199.695312 C 83.046875 207.492188 78.863281 214.386719 74.675781 218.964844 C 70.566406 220.269531 65.726562 220.703125 60.6875 220.949219 C 59.476562 220.980469 58.253906 221 57.03125 221 " fill-opacity="1" fill-rule="nonzero"/><g clip-path="url(#1c40214d66)"><path fill="#1082cf" d="M 72.425781 160.683594 C 69.324219 160.683594 66.808594 158.152344 66.808594 155.03125 C 66.808594 151.910156 69.324219 149.382812 72.425781 149.382812 C 75.527344 149.382812 78.042969 151.910156 78.042969 155.03125 C 78.042969 158.152344 75.527344 160.683594 72.425781 160.683594 " fill-opacity="1" fill-rule="nonzero"/></g><path fill="#e91348" d="M 83.660156 169.253906 C 82.109375 169.253906 80.851562 167.988281 80.851562 166.429688 C 80.851562 164.867188 82.109375 163.605469 83.660156 163.605469 C 85.210938 163.605469 86.46875 164.867188 86.46875 166.429688 C 86.46875 167.988281 85.210938 169.253906 83.660156 169.253906 " fill-opacity="1" fill-rule="nonzero"/><path fill="#ffffff" d="M 75.925781 189.996094 L 52.148438 176.183594 C 49.328125 174.542969 45.800781 176.59375 45.800781 179.871094 L 45.800781 207.492188 C 45.800781 210.769531 49.328125 212.816406 52.148438 211.179688 L 75.925781 197.367188 C 78.75 195.730469 78.75 191.632812 75.925781 189.996094 " fill-opacity="1" fill-rule="nonzero"/></svg>